<svg class="inline-block w-4 h-4" xmlns="http://www.w3.org/2000/svg" xmlns:xlink="http://www.w3.org/1999/xlink" viewBox="0 0 123.37 34.58"><defs><style>.a{fill:none;}.b{fill:#1a1a1a;}.c{isolation:isolate;}.d{clip-path:url(#a);}.e{fill:#fff;}.f{clip-path:url(#b);}</style><clipPath id="a" transform="translate(-1.63 -0.79)"><rect class="a" x="11.02" y="9.75" width="43.43" height="18.84"/></clipPath><clipPath id="b" transform="translate(-1.63 -0.79)"><rect class="a" x="1.63" y="0.79" width="61.72" height="26.44"/></clipPath></defs><rect class="b" x="10.79" y="18.33" width="41.11" height="11.12"/><path class="b" d="M12.42,30c-.77-7.15,41.88-7.15,41.1,0C54.29,37.16,11.64,37.16,12.42,30Z" transform="translate(-1.63 -0.79)"/><g class="c"><g class="d"><path class="e" d="M33,9.75a3.43,3.43,0,0,0-1.33.24L11.56,18.62c-.72.31-.72.8,0,1.11l20.12,8.63a4,4,0,0,0,2.66,0l20.12-8.63c.72-.31.72-.8,0-1.11L34.34,10A3.4,3.4,0,0,0,33,9.75" transform="translate(-1.63 -0.79)"/></g></g><g class="c"><g class="f"><path class="b" d="M32.35.79a4.9,4.9,0,0,0-1.86.33L2.38,13.18c-1,.43-1,1.12,0,1.56L30.73,26.9a5.06,5.06,0,0,0,1.89.33,4.9,4.9,0,0,0,1.86-.33L62.59,14.84c1-.43,1-1.13,0-1.56L34.24,1.12A5,5,0,0,0,32.35.79" transform="translate(-1.63 -0.79)"/></g></g><path class="b" d="M72.32,13.29l-.56-2H69.08l-.6,2H66l3.09-10h3.24l3.14,10ZM69.6,9.14h1.62l-.81-2.91Z" transform="translate(-1.63 -0.79)"/><path class="b" d="M79.15,3.29v10H76.28v-10Z" transform="translate(-1.63 -0.79)"/><path class="b" d="M83.57,3.29v10H80.69v-10Z" transform="translate(-1.63 -0.79)"/><path class="b" d="M101.48,3.29l-2.65,10H96.25L94.86,7.77l-1.32,5.52H90.85l-2.66-10h2.89L92.48,9l1.36-5.75h2.41l1.48,5.77,1.4-5.77Z" transform="translate(-1.63 -0.79)"/><path class="b" d="M109.43,13.29h-2.78a4.88,4.88,0,0,1-.11-1,2.67,2.67,0,0,1-2.39,1.19,2.61,2.61,0,0,1-2-.67,2.16,2.16,0,0,1-.66-1.55,2.24,2.24,0,0,1,1.07-1.91,8.1,8.1,0,0,1,3.81-.87V8.27a.76.76,0,0,0-.23-.65,1.06,1.06,0,0,0-.65-.16c-.67,0-1,.27-1.13.81L101.73,8c.38-1.56,1.67-2.33,3.89-2.33a7.13,7.13,0,0,1,1.65.18,2.59,2.59,0,0,1,1.19.56,1.87,1.87,0,0,1,.59.8,5.77,5.77,0,0,1,.15,1.63v3A4.16,4.16,0,0,0,109.43,13.29Zm-3-3.49c-1.25.13-1.87.53-1.87,1.2,0,.44.25.67.74.67a1.18,1.18,0,0,0,.8-.28q.33-.27.33-1.23Z" transform="translate(-1.63 -0.79)"/><path class="b" d="M117.48,5.84l-2.92,8.07a3.27,3.27,0,0,1-1,1.43,3,3,0,0,1-1.94.52c-.21,0-.7,0-1.46-.07V13.72a6.77,6.77,0,0,0,1,.09c.84,0,1.26-.19,1.26-.56a1.53,1.53,0,0,0-.12-.5L109.7,5.84h3.13l1.23,4,1.29-4Z" transform="translate(-1.63 -0.79)"/><path class="b" d="M117.41,11.18l2.31-.32c.13.54.66.81,1.57.81.76,0,1.13-.15,1.13-.44a.33.33,0,0,0-.21-.3,4.52,4.52,0,0,0-1-.21,4.82,4.82,0,0,1-2.83-1,2.21,2.21,0,0,1-.56-1.49,2.19,2.19,0,0,1,1-1.85,4.09,4.09,0,0,1,2.5-.7q2.7,0,3.45,1.95l-2.21.42a1.28,1.28,0,0,0-1.3-.66,1.45,1.45,0,0,0-.7.13c-.15.08-.23.17-.23.25,0,.24.24.39.71.45a14.39,14.39,0,0,1,2.48.41,2.27,2.27,0,0,1,1.11.78,2.06,2.06,0,0,1,.47,1.36,2.26,2.26,0,0,1-1,1.94,4.81,4.81,0,0,1-2.81.72Q118.13,13.44,117.41,11.18Z" transform="translate(-1.63 -0.79)"/><path class="b" d="M71.31,23.84v1.9H69.82v2.74c0,.38.07.6.21.67a1,1,0,0,0,.44.11,3.13,3.13,0,0,0,.84-.13v2.08a8.31,8.31,0,0,1-1.7.17,2.84,2.84,0,0,1-2-.58A2.38,2.38,0,0,1,67,29V25.74H65.89v-1.9H67l0-2.42,2.78-.05v2.47Z" transform="translate(-1.63 -0.79)"/><path class="b" d="M75.92,31.44A3.86,3.86,0,0,1,73,30.29a3.8,3.8,0,0,1-1.09-2.71A3.73,3.73,0,0,1,73,24.8a4.52,4.52,0,0,1,5.91,0,3.7,3.7,0,0,1,1.12,2.76,3.79,3.79,0,0,1-1.13,2.79A4.13,4.13,0,0,1,75.92,31.44Zm0-1.77A.79.79,0,0,0,76.8,29,7,7,0,0,0,77,27.49,3.93,3.93,0,0,0,76.74,26a.78.78,0,0,0-.77-.46.79.79,0,0,0-.74.47A4,4,0,0,0,75,27.56a3.91,3.91,0,0,0,.24,1.7A.79.79,0,0,0,76,29.67Z" transform="translate(-1.63 -0.79)"/><path class="b" d="M92.06,28.83v2.46h-7v-10h3.07v7.54Z" transform="translate(-1.63 -0.79)"/><path class="b" d="M98,28.61l2.72.19a3.23,3.23,0,0,1-1.23,1.87,4.3,4.3,0,0,1-2.69.77,4.11,4.11,0,0,1-3-1.09,3.58,3.58,0,0,1-1.12-2.69,3.85,3.85,0,0,1,4.06-4,3.75,3.75,0,0,1,4,4c0,.1,0,.25,0,.43h-5a2,2,0,0,0,.25,1,1.21,1.21,0,0,0,2-.58Zm-.2-1.93a1.39,1.39,0,0,0-.3-1,1.06,1.06,0,0,0-.74-.26c-.69,0-1,.42-1,1.27Z" transform="translate(-1.63 -0.79)"/><path class="b" d="M109.33,31.29h-2.78a4.88,4.88,0,0,1-.11-1,3.1,3.1,0,0,1-4.37.52,2.19,2.19,0,0,1-.65-1.55,2.24,2.24,0,0,1,1.07-1.91,8.1,8.1,0,0,1,3.81-.87v-.17a.76.76,0,0,0-.23-.65,1.08,1.08,0,0,0-.65-.16c-.68,0-1,.27-1.13.81L101.62,26c.38-1.56,1.68-2.33,3.89-2.33a7.16,7.16,0,0,1,1.66.18,2.69,2.69,0,0,1,1.19.55,2,2,0,0,1,.59.81,5.77,5.77,0,0,1,.15,1.63v3A4.16,4.16,0,0,0,109.33,31.29Zm-3-3.49c-1.25.13-1.87.53-1.87,1.2,0,.45.25.67.74.67a1.18,1.18,0,0,0,.8-.28q.33-.27.33-1.23Z" transform="translate(-1.63 -0.79)"/><path class="b" d="M113.42,31.29h-2.8V23.84h2.43v1.54A1.9,1.9,0,0,1,115,23.7l.43,0v2.6a2.36,2.36,0,0,0-.55-.07c-1,0-1.45.54-1.45,1.62Z" transform="translate(-1.63 -0.79)"/><path class="b" d="M123.61,31.29h-2.92V26.6a1,1,0,0,0-.18-.74.64.64,0,0,0-.45-.16c-.53,0-.8.37-.8,1.11v4.48h-2.92V23.84h2.71v1.05a2.18,2.18,0,0,1,2.14-1.2,2.79,2.79,0,0,1,1.38.31,1.82,1.82,0,0,1,.8.8,4.35,4.35,0,0,1,.24,1.72Z" transform="translate(-1.63 -0.79)"/></svg>